<svg width="314" height="77" viewBox="0 0 314 77" fill="none" xmlns="http://www.w3.org/2000/svg">
<rect x="39" y="14" width="237" height="49" stroke="#7B7B7B" stroke-width="4"/>
<path d="M68.0391 50.4062C66.9844 51.6693 65.4935 52.6523 63.5664 53.3555C61.6393 54.0456 59.5039 54.3906 57.1602 54.3906C54.6992 54.3906 52.5378 53.8568 50.6758 52.7891C48.8268 51.7083 47.3945 50.1458 46.3789 48.1016C45.3763 46.0573 44.862 43.6549 44.8359 40.8945V38.9609C44.8359 36.1224 45.3112 33.668 46.2617 31.5977C47.2253 29.5143 48.6055 27.9258 50.4023 26.832C52.2122 25.7253 54.3281 25.1719 56.75 25.1719C60.1224 25.1719 62.7591 25.9792 64.6602 27.5938C66.5612 29.1953 67.6875 31.5326 68.0391 34.6055H62.3359C62.0755 32.9779 61.4961 31.7865 60.5977 31.0312C59.7122 30.276 58.4883 29.8984 56.9258 29.8984C54.9336 29.8984 53.4167 30.6471 52.375 32.1445C51.3333 33.6419 50.806 35.8685 50.793 38.8242V40.6406C50.793 43.6224 51.3594 45.875 52.4922 47.3984C53.625 48.9219 55.2852 49.6836 57.4727 49.6836C59.6732 49.6836 61.2422 49.2148 62.1797 48.2773V43.375H56.8477V39.0586H68.0391V50.4062ZM87.332 43.5898H82.6641V54H76.8047V25.5625H87.3711C90.7305 25.5625 93.3216 26.3112 95.1445 27.8086C96.9674 29.306 97.8789 31.4219 97.8789 34.1562C97.8789 36.0964 97.4557 37.7174 96.6094 39.0195C95.776 40.3086 94.5065 41.3372 92.8008 42.1055L98.9531 53.7266V54H92.6641L87.332 43.5898ZM82.6641 38.8438H87.3906C88.862 38.8438 90.0013 38.4727 90.8086 37.7305C91.6159 36.9753 92.0195 35.9401 92.0195 34.625C92.0195 33.2839 91.6354 32.2292 90.8672 31.4609C90.112 30.6927 88.9466 30.3086 87.3711 30.3086H82.6641V38.8438ZM112.582 54H106.723V25.5625H112.582V54ZM145.156 54H139.297L127.891 35.2891V54H122.031V25.5625H127.891L139.316 44.3125V25.5625H145.156V54ZM154.273 54V25.5625H163.023C165.523 25.5625 167.757 26.1289 169.723 27.2617C171.702 28.3815 173.245 29.9831 174.352 32.0664C175.458 34.1367 176.012 36.4935 176.012 39.1367V40.4453C176.012 43.0885 175.465 45.4388 174.371 47.4961C173.29 49.5534 171.76 51.1484 169.781 52.2812C167.802 53.4141 165.569 53.987 163.082 54H154.273ZM160.133 30.3086V49.293H162.965C165.257 49.293 167.008 48.5443 168.219 47.0469C169.43 45.5495 170.048 43.4076 170.074 40.6211V39.1172C170.074 36.2266 169.475 34.0391 168.277 32.5547C167.079 31.0573 165.328 30.3086 163.023 30.3086H160.133ZM205.812 25.5625V44.293C205.812 47.4049 204.836 49.8659 202.883 51.6758C200.943 53.4857 198.286 54.3906 194.914 54.3906C191.594 54.3906 188.957 53.5117 187.004 51.7539C185.051 49.9961 184.055 47.5807 184.016 44.5078V25.5625H189.875V44.332C189.875 46.194 190.318 47.5547 191.203 48.4141C192.102 49.2604 193.339 49.6836 194.914 49.6836C198.208 49.6836 199.882 47.9518 199.934 44.4883V25.5625H205.812ZM236.941 44.5273C236.72 47.5872 235.587 49.9961 233.543 51.7539C231.512 53.5117 228.829 54.3906 225.496 54.3906C221.85 54.3906 218.979 53.1667 216.883 50.7188C214.799 48.2578 213.758 44.8854 213.758 40.6016V38.8633C213.758 36.1289 214.24 33.7201 215.203 31.6367C216.167 29.5534 217.54 27.9583 219.324 26.8516C221.121 25.7318 223.204 25.1719 225.574 25.1719C228.855 25.1719 231.499 26.0508 233.504 27.8086C235.509 29.5664 236.668 32.0339 236.98 35.2109H231.121C230.978 33.375 230.464 32.0469 229.578 31.2266C228.706 30.3932 227.371 29.9766 225.574 29.9766C223.621 29.9766 222.156 30.6797 221.18 32.0859C220.216 33.4792 219.721 35.6471 219.695 38.5898V40.7383C219.695 43.8112 220.158 46.0573 221.082 47.4766C222.02 48.8958 223.491 49.6055 225.496 49.6055C227.306 49.6055 228.654 49.1953 229.539 48.375C230.438 47.5417 230.952 46.2591 231.082 44.5273H236.941ZM253.695 42.5938L250.648 45.875V54H244.789V25.5625H250.648V38.4531L253.227 34.918L260.473 25.5625H267.68L257.582 38.1992L267.973 54H261L253.695 42.5938Z" fill="#6ECC83"/>
</svg>
